<svg width="321" height="74" viewBox="0 0 321 74" fill="none" xmlns="http://www.w3.org/2000/svg">
<path d="M30.95 30.7V11.49L35.03 6.645L38.6 11.49V36.48L30.95 30.7ZM0.0950007 35.97V10.47L3.92 6.56L7.83 10.47V30.7L0.0950007 35.97ZM7.83 42.77V64.445L4.005 68.27L0.0950007 64.445V38.435L7.83 42.77ZM30.95 63.51V42.77L38.6 38.435V63.51L34.775 68.78L30.95 63.51ZM8.765 32.655H29.93L36.73 37.5L29.93 41.325H8.765L2.05 37.5L8.765 32.655ZM28.995 0.864999L33.33 5.2L28.995 9.535H9.7L5.365 5.2L9.7 0.864999H28.995ZM28.995 64.955L33.33 69.29L28.995 73.625H9.7L5.365 69.29L9.7 64.955H28.995ZM87.3953 30.7V11.49L91.4753 6.645L95.0453 11.49V36.48L87.3953 30.7ZM56.5403 35.97V10.47L60.3653 6.56L64.2753 10.47V30.7L56.5403 35.97ZM64.2753 42.77V64.445L60.4503 68.27L56.5403 64.445V38.435L64.2753 42.77ZM87.3953 63.51V42.77L95.0453 38.435V63.51L91.2203 68.78L87.3953 63.51ZM65.2103 32.655H86.3753L93.1753 37.5L86.3753 41.325H65.2103L58.4953 37.5L65.2103 32.655ZM85.4403 0.864999L89.7753 5.2L85.4403 9.535H66.1453L61.8103 5.2L66.1453 0.864999H85.4403ZM85.4403 64.955L89.7753 69.29L85.4403 73.625H66.1453L61.8103 69.29L66.1453 64.955H85.4403ZM143.841 30.7V11.49L147.921 6.645L151.491 11.49V36.48L143.841 30.7ZM112.986 35.97V10.47L116.811 6.56L120.721 10.47V30.7L112.986 35.97ZM120.721 42.77V64.445L116.896 68.27L112.986 64.445V38.435L120.721 42.77ZM143.841 63.51V42.77L151.491 38.435V63.51L147.666 68.78L143.841 63.51ZM121.656 32.655H142.821L149.621 37.5L142.821 41.325H121.656L114.941 37.5L121.656 32.655ZM141.886 0.864999L146.221 5.2L141.886 9.535H122.591L118.256 5.2L122.591 0.864999H141.886ZM141.886 64.955L146.221 69.29L141.886 73.625H122.591L118.256 69.29L122.591 64.955H141.886ZM200.286 30.7V11.49L204.366 6.645L207.936 11.49V36.48L200.286 30.7ZM169.431 35.97V10.47L173.256 6.56L177.166 10.47V30.7L169.431 35.97ZM177.166 42.77V64.445L173.341 68.27L169.431 64.445V38.435L177.166 42.77ZM200.286 63.51V42.77L207.936 38.435V63.51L204.111 68.78L200.286 63.51ZM178.101 32.655H199.266L206.066 37.5L199.266 41.325H178.101L171.386 37.5L178.101 32.655ZM198.331 0.864999L202.666 5.2L198.331 9.535H179.036L174.701 5.2L179.036 0.864999H198.331ZM198.331 64.955L202.666 69.29L198.331 73.625H179.036L174.701 69.29L179.036 64.955H198.331ZM256.731 30.7V11.49L260.811 6.645L264.381 11.49V36.48L256.731 30.7ZM225.876 35.97V10.47L229.701 6.56L233.611 10.47V30.7L225.876 35.97ZM233.611 42.77V64.445L229.786 68.27L225.876 64.445V38.435L233.611 42.77ZM256.731 63.51V42.77L264.381 38.435V63.51L260.556 68.78L256.731 63.51ZM234.546 32.655H255.711L262.511 37.5L255.711 41.325H234.546L227.831 37.5L234.546 32.655ZM254.776 0.864999L259.111 5.2L254.776 9.535H235.481L231.146 5.2L235.481 0.864999H254.776ZM254.776 64.955L259.111 69.29L254.776 73.625H235.481L231.146 69.29L235.481 64.955H254.776ZM313.177 30.7V11.49L317.257 6.645L320.827 11.49V36.48L313.177 30.7ZM282.322 35.97V10.47L286.147 6.56L290.057 10.47V30.7L282.322 35.97ZM290.057 42.77V64.445L286.232 68.27L282.322 64.445V38.435L290.057 42.77ZM313.177 63.51V42.77L320.827 38.435V63.51L317.002 68.78L313.177 63.51ZM290.992 32.655H312.157L318.957 37.5L312.157 41.325H290.992L284.277 37.5L290.992 32.655ZM311.222 0.864999L315.557 5.2L311.222 9.535H291.927L287.592 5.2L291.927 0.864999H311.222ZM311.222 64.955L315.557 69.29L311.222 73.625H291.927L287.592 69.29L291.927 64.955H311.222Z" fill="#DADDCA"/>
</svg>
