<svg width="359" height="103" viewBox="0 0 359 103" fill="none" xmlns="http://www.w3.org/2000/svg">
<rect x="0.5" y="0.397217" width="358" height="102" rx="25" fill="#E8EBD6"/>
<rect x="0.5" y="0.397217" width="358" height="102" rx="25" stroke="#606E78"/>
<path d="M72.3973 46.6028V30.7617L75.7556 26.7664L78.6941 30.7617V51.3692L72.3973 46.6028ZM47 50.9486V29.9206L50.1484 26.6963L53.3668 29.9206V46.6028L47 50.9486ZM53.3668 56.5561V74.4299L50.2184 77.5841L47 74.4299V52.9813L53.3668 56.5561ZM72.3973 73.6589V56.5561L78.6941 52.9813V73.6589L75.5457 78.0047L72.3973 73.6589ZM54.1364 48.215H71.5577L77.1549 52.2103L71.5577 55.3645H54.1364L48.6092 52.2103L54.1364 48.215ZM70.7881 22L74.3563 25.5748L70.7881 29.1495H54.906L51.3378 25.5748L54.906 22H70.7881ZM70.7881 74.8505L74.3563 78.4252L70.7881 82H54.906L51.3378 78.4252L54.906 74.8505H70.7881ZM118.858 46.6028V30.7617L122.217 26.7664L125.155 30.7617V51.3692L118.858 46.6028ZM93.4611 50.9486V29.9206L96.6095 26.6963L99.8279 29.9206V46.6028L93.4611 50.9486ZM99.8279 56.5561V74.4299L96.6795 77.5841L93.4611 74.4299V52.9813L99.8279 56.5561ZM118.858 73.6589V56.5561L125.155 52.9813V73.6589L122.007 78.0047L118.858 73.6589ZM100.598 48.215H118.019L123.616 52.2103L118.019 55.3645H100.598L95.0703 52.2103L100.598 48.215ZM117.249 22L120.817 25.5748L117.249 29.1495H101.367L97.7989 25.5748L101.367 22H117.249ZM117.249 74.8505L120.817 78.4252L117.249 82H101.367L97.7989 78.4252L101.367 74.8505H117.249ZM165.32 46.6028V30.7617L168.678 26.7664L171.617 30.7617V51.3692L165.32 46.6028ZM139.923 50.9486V29.9206L143.071 26.6963L146.289 29.9206V46.6028L139.923 50.9486ZM146.289 56.5561V74.4299L143.141 77.5841L139.923 74.4299V52.9813L146.289 56.5561ZM165.32 73.6589V56.5561L171.617 52.9813V73.6589L168.468 78.0047L165.32 73.6589ZM147.059 48.215H164.48L170.077 52.2103L164.48 55.3645H147.059L141.532 52.2103L147.059 48.215ZM163.711 22L167.279 25.5748L163.711 29.1495H147.829L144.26 25.5748L147.829 22H163.711ZM163.711 74.8505L167.279 78.4252L163.711 82H147.829L144.26 78.4252L147.829 74.8505H163.711ZM211.781 46.6028V30.7617L215.139 26.7664L218.077 30.7617V51.3692L211.781 46.6028ZM186.383 50.9486V29.9206L189.532 26.6963L192.75 29.9206V46.6028L186.383 50.9486ZM192.75 56.5561V74.4299L189.602 77.5841L186.383 74.4299V52.9813L192.75 56.5561ZM211.781 73.6589V56.5561L218.077 52.9813V73.6589L214.929 78.0047L211.781 73.6589ZM193.52 48.215H210.941L216.538 52.2103L210.941 55.3645H193.52L187.993 52.2103L193.52 48.215ZM210.171 22L213.74 25.5748L210.171 29.1495H194.289L190.721 25.5748L194.289 22H210.171ZM210.171 74.8505L213.74 78.4252L210.171 82H194.289L190.721 78.4252L194.289 74.8505H210.171ZM258.241 46.6028V30.7617L261.6 26.7664L264.538 30.7617V51.3692L258.241 46.6028ZM232.844 50.9486V29.9206L235.993 26.6963L239.211 29.9206V46.6028L232.844 50.9486ZM239.211 56.5561V74.4299L236.063 77.5841L232.844 74.4299V52.9813L239.211 56.5561ZM258.241 73.6589V56.5561L264.538 52.9813V73.6589L261.39 78.0047L258.241 73.6589ZM239.981 48.215H257.402L262.999 52.2103L257.402 55.3645H239.981L234.453 52.2103L239.981 48.215ZM256.632 22L260.201 25.5748L256.632 29.1495H240.75L237.182 25.5748L240.75 22H256.632ZM256.632 74.8505L260.201 78.4252L256.632 82H240.75L237.182 78.4252L240.75 74.8505H256.632ZM304.703 46.6028V30.7617L308.061 26.7664L311 30.7617V51.3692L304.703 46.6028ZM279.306 50.9486V29.9206L282.454 26.6963L285.673 29.9206V46.6028L279.306 50.9486ZM285.673 56.5561V74.4299L282.524 77.5841L279.306 74.4299V52.9813L285.673 56.5561ZM304.703 73.6589V56.5561L311 52.9813V73.6589L307.852 78.0047L304.703 73.6589ZM286.442 48.215H303.864L309.461 52.2103L303.864 55.3645H286.442L280.915 52.2103L286.442 48.215ZM303.094 22L306.662 25.5748L303.094 29.1495H287.212L283.644 25.5748L287.212 22H303.094ZM303.094 74.8505L306.662 78.4252L303.094 82H287.212L283.644 78.4252L287.212 74.8505H303.094Z" fill="#DADDCA"/>
</svg>
